<?xml version="1.0" encoding="UTF-8" standalone="no"?>
<svg
   viewBox="0 0 400 225"
   version="1.1"
   id="svg64"
   sodipodi:docname="icon.svg"
   inkscape:version="1.1 (c4e8f9ed74, 2021-05-24)"
   xmlns:inkscape="http://www.inkscape.org/namespaces/inkscape"
   xmlns:sodipodi="http://sodipodi.sourceforge.net/DTD/sodipodi-0.dtd"
   xmlns="http://www.w3.org/2000/svg"
   xmlns:svg="http://www.w3.org/2000/svg">
  <sodipodi:namedview
     id="namedview66"
     pagecolor="#ffffff"
     bordercolor="#666666"
     borderopacity="1.0"
     inkscape:pageshadow="2"
     inkscape:pageopacity="0.0"
     inkscape:pagecheckerboard="0"
     showgrid="false"
     inkscape:zoom="6.4622222"
     inkscape:cx="223.68466"
     inkscape:cy="99.810867"
     inkscape:window-width="1920"
     inkscape:window-height="1046"
     inkscape:window-x="0"
     inkscape:window-y="16"
     inkscape:window-maximized="1"
     inkscape:current-layer="g58" />
  <defs
     id="defs4">
    <style
       id="style2">
      .cls-1 {
        fill: #1d89af;
      }

      .cls-2 {
        opacity: 0.15;
      }

      .cls-3 {
        fill: #231f20;
      }

      .cls-4 {
        fill: #fff;
      }

      .cls-5 {
        fill: #79aad3;
      }

      .cls-6 {
        fill: #b0afad;
      }

      .cls-7 {
        fill: none;
      }
    </style>
  </defs>
  <title
     id="title6">fill in the blanks</title>
  <g
     id="Layer_2"
     data-name="Layer 2">
    <g
       id="fill_in_the_blanks"
       data-name="fill in the blanks"
       style="display:inline">
      <g
         id="g58"
         style="display:inline">
        <rect
           class="cls-1"
           x="134.42999"
           y="26.709999"
           width="139.14"
           height="173.59"
           id="rect8" />
        <g
           id="g16">
          <g
             class="cls-2"
             id="g12">
            <rect
               class="cls-3"
               x="150.44"
               y="43.369999"
               width="112.96"
               height="146.09"
               id="rect10" />
          </g>
          <rect
             class="cls-4"
             x="147.52"
             y="40.459999"
             width="112.96"
             height="146.09"
             id="rect14" />
        </g>
        <path
           class="cls-5"
           d="m 185.74417,76.169705 h -25.56 a 2.33,2.33 0 0 1 -2.33,-2.33 v -4.66 a 2.51,2.51 0 0 1 2.33,-2.53 h 25.56 a 2.51,2.51 0 0 1 2.33,2.53 v 4.66 a 2.33,2.33 0 0 1 -2.33,2.33 z m -25.47,-7.19 a 0.38,0.38 0 0 0 -0.09,0.19 v 4.66 h 25.56 v -4.65 a 0.38,0.38 0 0 0 -0.09,-0.19 z"
           id="path18" />
        <path
           class="cls-5"
           d="m 222.12211,76.434996 h -25.56 a 2.33,2.33 0 0 1 -2.33,-2.33 v -4.66 a 2.51,2.51 0 0 1 2.33,-2.53 h 25.56 a 2.51,2.51 0 0 1 2.33,2.53 v 4.66 a 2.33,2.33 0 0 1 -2.33,2.33 z m -25.47,-7.19 a 0.38,0.38 0 0 0 -0.09,0.19 v 4.66 h 25.56 v -4.65 a 0.38,0.38 0 0 0 -0.09,-0.19 z"
           id="path18-2"
           style="display:inline;fill:#79aad3" />
        <path
           class="cls-5"
           d="M 249.88835,76.478896 H 229.7842 a 1.8326546,2.33 0 0 1 -1.83265,-2.33 v -4.66 a 1.9742331,2.51 0 0 1 1.83265,-2.53 h 20.10415 a 1.9742331,2.51 0 0 1 1.83265,2.53 v 4.66 a 1.8326546,2.33 0 0 1 -1.83265,2.33 z m -20.03336,-7.19 a 0.29888788,0.38 0 0 0 -0.0708,0.19 v 4.66 h 20.10415 v -4.65 a 0.29888788,0.38 0 0 0 -0.0708,-0.19 z"
           id="path18-7"
           style="display:inline;fill:#79aad3;stroke-width:0.886875" />
        <path
           class="cls-5"
           d="m 186.04182,97.137825 h -25.56 a 2.33,2.33 0 0 1 -2.33,-2.33 v -4.66 a 2.51,2.51 0 0 1 2.33,-2.53 h 25.56 a 2.51,2.51 0 0 1 2.33,2.53 v 4.66 a 2.33,2.33 0 0 1 -2.33,2.33 z m -25.47,-7.19 a 0.38,0.38 0 0 0 -0.09,0.19 v 4.66 h 25.56 v -4.65 a 0.38,0.38 0 0 0 -0.09,-0.19 z"
           id="path18-3"
           style="display:inline;fill:#79aad3" />
        <rect
           class="cls-6"
           x="194.20432"
           y="89.459999"
           width="29.258581"
           height="7.1900001"
           rx="2.6912372"
           ry="1.17"
           id="rect26"
           style="stroke-width:1.51664" />
        <rect
           class="cls-6"
           x="228.01678"
           y="89.459999"
           width="23.385826"
           height="7.1900001"
           rx="1.3903159"
           ry="1.17"
           id="rect30"
           style="stroke-width:1.09009" />
        <path
           class="cls-5"
           d="m 185.65037,115.86436 h -25.56 a 2.33,2.33 0 0 1 -2.33,-2.33 v -4.66 a 2.51,2.51 0 0 1 2.33,-2.53 h 25.56 a 2.51,2.51 0 0 1 2.33,2.53 v 4.66 a 2.33,2.33 0 0 1 -2.33,2.33 z m -25.47,-7.19 a 0.38,0.38 0 0 0 -0.09,0.19 v 4.66 h 25.56 v -4.65 a 0.38,0.38 0 0 0 -0.09,-0.19 z"
           id="path18-6"
           style="display:inline;fill:#79aad3" />
        <path
           class="cls-5"
           d="m 185.4857,136.98723 h -25.56 a 2.33,2.33 0 0 1 -2.33,-2.33 v -4.66 a 2.51,2.51 0 0 1 2.33,-2.53 h 25.56 a 2.51,2.51 0 0 1 2.33,2.53 v 4.66 a 2.33,2.33 0 0 1 -2.33,2.33 z m -25.47,-7.19 a 0.38,0.38 0 0 0 -0.09,0.19 v 4.66 h 25.56 v -4.65 a 0.38,0.38 0 0 0 -0.09,-0.19 z"
           id="path18-3-7"
           style="display:inline;fill:#79aad3" />
        <path
           class="cls-6"
           d="m 220.36395,114.9594 h -24.61933 a 2.0979327,1.17 0 0 1 -2.09794,-1.17 v -4.66 a 2.4206916,1.35 0 0 1 2.09794,-1.36 h 24.61933 a 2.4206916,1.35 0 0 1 2.09793,1.36 v 4.66 a 2.0979327,1.17 0 0 1 -2.09793,1.17 z"
           id="path22-5"
           style="display:inline;fill:#b0afad;stroke-width:1.33907" />
        <path
           class="cls-6"
           d="m 249.62297,114.9594 h -21.69 a 1.17,1.17 0 0 1 -1.17,-1.17 v -4.66 a 1.35,1.35 0 0 1 1.17,-1.36 h 21.68 a 1.35,1.35 0 0 1 1.17,1.36 v 4.66 a 1.17,1.17 0 0 1 -1.16,1.17 z"
           id="path24-3"
           style="display:inline;fill:#b0afad" />
        <rect
           class="cls-6"
           x="192.65211"
           y="129.3094"
           width="30.254681"
           height="7.1900001"
           rx="2.7828596"
           ry="1.17"
           id="rect26-5"
           style="display:inline;fill:#b0afad;stroke-width:1.54224" />
        <rect
           class="cls-6"
           x="227.46068"
           y="129.3094"
           width="23.385826"
           height="7.1900001"
           rx="1.3903159"
           ry="1.17"
           id="rect30-6"
           style="display:inline;fill:#b0afad;stroke-width:1.09009" />
        <path
           class="cls-5"
           d="m 185.50059,155.81656 h -25.56 a 2.33,2.33 0 0 1 -2.33,-2.33 v -4.66 a 2.51,2.51 0 0 1 2.33,-2.53 h 25.56 a 2.51,2.51 0 0 1 2.33,2.53 v 4.66 a 2.33,2.33 0 0 1 -2.33,2.33 z m -25.47,-7.19 a 0.38,0.38 0 0 0 -0.09,0.19 v 4.66 h 25.56 v -4.65 a 0.38,0.38 0 0 0 -0.09,-0.19 z"
           id="path18-3-7-2"
           style="display:inline;fill:#79aad3" />
        <rect
           class="cls-6"
           x="192.66701"
           y="148.13875"
           width="30.254681"
           height="7.1900001"
           rx="2.7828596"
           ry="1.17"
           id="rect26-5-9"
           style="display:inline;fill:#b0afad;stroke-width:1.54224" />
        <rect
           class="cls-6"
           x="227.47557"
           y="148.13875"
           width="23.385826"
           height="7.1900001"
           rx="1.3903159"
           ry="1.17"
           id="rect30-6-1"
           style="display:inline;fill:#b0afad;stroke-width:1.09009" />
      </g>
      <rect
         class="cls-7"
         width="400"
         height="225"
         id="rect60"
         x="0"
         y="0"
         style="display:inline" />
    </g>
  </g>
</svg>
